<?xml version="1.0" encoding="UTF-8"?>
<svg id="_레이어_2" data-name="레이어 2" xmlns="http://www.w3.org/2000/svg" width="current" height="current" viewBox="0 0 790.1 109.81">
  <defs>
    <style>
      .cls-1 {
        fill: #3b82f6;
      }

      .cls-2 {
        fill: #2b2b2b;
      }
    </style>
  </defs>
  <g id="_레이어_1-2" data-name="레이어 1">
    <g>
      <g>
        <path class="cls-2" d="m162.66,86.52c-6.1,0-10.89-.63-14.36-1.89-3.48-1.26-5.93-3.42-7.35-6.49-1.42-3.07-2.14-7.28-2.14-12.64v-28.84h-15.86v-12.48h15.86V7.21l16.25-7.21v24.18h21.24v12.48h-21.24v29.62c0,2.74.69,4.71,2.08,5.93,1.39,1.22,3.61,1.83,6.68,1.83h12.48v12.48h-13.64Z"/>
        <path class="cls-2" d="m198.54,24.18h14.64l1.61,9.65c1.59-3.51,4.02-6.25,7.29-8.21,3.27-1.96,7.11-2.94,11.51-2.94s8.76,1.05,12.65,3.16v15.47c-3.59-3.25-8.28-4.88-14.09-4.88-4.7,0-8.5,1.07-11.42,3.22-2.92,2.14-4.73,5.23-5.44,9.26-.19.96-.31,2.13-.39,3.49-.07,1.37-.11,3.12-.11,5.27v28.62h-16.25V24.18Z"/>
        <path class="cls-2" d="m261.15,97.44h3.44c2.7,0,4.88-.1,6.54-.3,1.66-.2,3.02-.7,4.08-1.5,1.05-.79,2.01-2.06,2.86-3.8.85-1.74,1.83-4.16,2.94-7.27l-23.63-60.4h17.08l14.2,40.32,13.59-40.32h17.08l-25.79,68.83c-1.11,2.99-2.47,5.77-4.08,8.32-1.61,2.55-3.61,4.6-6.02,6.16-2.4,1.55-5.36,2.33-8.87,2.33h-13.42v-12.37Z"/>
        <path class="cls-2" d="m369.25,104.82c-9.13,0-15.29-1.37-18.47-4.1-3.14-2.7-4.71-8.15-4.71-16.36v-11.92c0-2.59-.23-4.89-.69-6.91-.46-2.01-1.21-3.58-2.25-4.69-1-1.07-2.42-1.87-4.27-2.38-1.85-.52-4.01-.78-6.49-.78h-5.1v-10.59h5.1c5.18,0,8.76-1.05,10.76-3.16,1.96-2.18,2.94-6.05,2.94-11.59v-11.92c0-8.21,1.57-13.66,4.71-16.36,3.03-2.7,9.19-4.05,18.47-4.05h8.32v10.54h-6.82c-3.85,0-6.42.78-7.71,2.33-1.29,1.63-1.94,5.05-1.94,10.26v11.59c0,6.1-.91,10.39-2.72,12.87-1.85,2.48-5.08,4.07-9.71,4.77,4.62.78,7.86,2.42,9.71,4.94,1.81,2.48,2.72,6.77,2.72,12.87v11.37c0,5.29.65,8.74,1.94,10.37,1.29,1.55,3.86,2.33,7.71,2.33h6.82v10.59h-8.32Z"/>
      </g>
      <g>
        <path class="cls-2" d="m401.55,94.23h6.71c3.84,0,6.43-.79,7.76-2.38,1.33-1.63,2-5.07,2-10.32v-11.37c0-6.1.91-10.39,2.72-12.87,1.89-2.55,5.1-4.2,9.65-4.94-4.7-.7-7.91-2.29-9.65-4.77-1.81-2.48-2.72-6.77-2.72-12.87v-11.59c0-5.18-.65-8.58-1.94-10.21-.7-.85-1.74-1.46-3.11-1.83-1.37-.37-2.94-.55-4.71-.55h-6.71V0h8.32c9.24,0,15.38,1.35,18.41,4.05,3.07,2.74,4.6,8.19,4.6,16.36v11.92c.18,3.92.66,6.91,1.41,8.98.76,2.07,2.11,3.5,4.05,4.3,1.94.8,4.74,1.29,8.4,1.47h5.1v10.59h-5.1c-5.21,0-8.82,1.07-10.81,3.22-2.03,2.15-3.05,5.99-3.05,11.54v11.92c0,8.17-1.53,13.62-4.6,16.36-3.18,2.74-9.32,4.1-18.41,4.1h-8.32v-10.59Z"/>
        <path class="cls-2" d="m496.5,87.91c-9.84,0-17.48-2.87-22.93-8.6-5.45-5.73-8.18-13.72-8.18-23.96s2.7-18.31,8.1-24.1c5.4-5.79,12.9-8.68,22.52-8.68,6.58,0,12.88,1.59,18.91,4.77v14.86c-4.81-4.21-10.22-6.32-16.25-6.32-5.44,0-9.59,1.68-12.48,5.05-2.88,3.37-4.33,8.15-4.33,14.36s1.43,10.94,4.3,14.28c2.87,3.35,6.96,5.02,12.28,5.02,6.32,0,11.81-2.13,16.47-6.38v14.92c-5.51,3.18-11.65,4.77-18.41,4.77Z"/>
        <path class="cls-2" d="m552.4,87.91c-6.43,0-11.64-1.84-15.61-5.52-3.98-3.68-5.96-8.97-5.96-15.89,0-4.36.79-7.92,2.36-10.68,1.57-2.75,3.72-4.89,6.43-6.41,2.72-1.52,5.8-2.56,9.23-3.13s7.04-.86,10.81-.86h11.26v-2.72c0-2.22-.58-3.9-1.75-5.05-1.17-1.15-2.66-1.92-4.49-2.33-1.83-.41-3.71-.61-5.63-.61-3.92,0-7.68.54-11.29,1.61s-7.2,2.59-10.79,4.55v-13.86c3.85-1.55,7.66-2.67,11.45-3.36,3.79-.68,7.63-1.03,11.51-1.03,6.8,0,12.18.97,16.14,2.91,3.96,1.94,6.78,4.94,8.46,8.98,1.68,4.05,2.52,9.2,2.52,15.45,0,1.44-.03,3.29-.08,5.55-.06,2.25-.08,4.51-.08,6.77,0,2-.02,3.88-.05,5.66-.04,1.77-.06,3.27-.06,4.49,0,1.07.06,2.47.17,4.19.11,1.72.37,3.47.78,5.24.41,1.77,1.04,3.25,1.89,4.44h-16.08c-.7-1.18-1.22-2.29-1.55-3.33-.33-1.03-.57-2.24-.72-3.6-2.18,2.92-4.91,5.07-8.18,6.46-3.27,1.39-6.83,2.08-10.68,2.08Zm5.32-11.26c3.4,0,6.05-.93,7.96-2.8,1.9-1.87,3.25-4.21,4.05-7.04.79-2.83,1.19-5.68,1.19-8.57v-1.11h-6.49c-2.55,0-5.08.18-7.6.53-2.51.35-4.59,1.22-6.24,2.61-1.65,1.39-2.47,3.67-2.47,6.85s.84,5.38,2.52,7.04c1.68,1.66,4.04,2.5,7.07,2.5Z"/>
        <path class="cls-2" d="m639.81,86.52c-6.1,0-10.89-.63-14.36-1.89-3.48-1.26-5.93-3.42-7.35-6.49-1.42-3.07-2.14-7.28-2.14-12.65v-28.84h-15.86v-12.48h15.86V7.21l16.25-7.21v24.18h21.24v12.48h-21.24v29.62c0,2.74.69,4.71,2.08,5.93,1.39,1.22,3.61,1.83,6.68,1.83h12.48v12.48h-13.64Z"/>
        <path class="cls-2" d="m701.64,87.91c-9.83,0-17.48-2.87-22.93-8.6-5.45-5.73-8.18-13.72-8.18-23.96s2.7-18.31,8.1-24.1c5.4-5.79,12.9-8.68,22.52-8.68,6.58,0,12.89,1.59,18.91,4.77v14.86c-4.81-4.21-10.22-6.32-16.25-6.32-5.43,0-9.59,1.68-12.48,5.05-2.88,3.37-4.33,8.15-4.33,14.36s1.43,10.94,4.3,14.28c2.86,3.35,6.96,5.02,12.28,5.02,6.32,0,11.81-2.13,16.47-6.38v14.92c-5.51,3.18-11.65,4.77-18.41,4.77Z"/>
        <path class="cls-2" d="m740.25,0h16.14v33.5c1.15-3.47,3.11-6.15,5.91-8.01,2.79-1.87,6.18-2.8,10.18-2.8,5.77,0,10.15,1.98,13.14,5.93,3,3.96,4.49,9.74,4.49,17.36v40.32h-16.14v-37.82c0-4.33-.63-7.49-1.89-9.48-1.26-2-3.18-3-5.77-3-3.18,0-5.63,1.31-7.35,3.94-1.72,2.63-2.58,6.23-2.58,10.81v35.55h-16.14V0Z"/>
      </g>
      <path class="cls-1" d="m99.05,35.71v-2.12c0-2.35-2.16-4.25-4.83-4.25h-19.41c-2.95-3.37-6.38-6.13-10.17-8.17l14.12-12.42c1.89-1.66,1.89-4.35,0-6.01l-1.71-1.5c-1.89-1.66-4.95-1.66-6.83,0l-18.37,16.15c-.77-.06-1.54-.14-2.32-.14-.55,0-1.09.07-1.63.1L29.81,1.46c-1.89-1.66-4.95-1.66-6.83,0l-1.71,1.5c-1.89,1.66-1.89,4.35,0,6.01l13.59,11.95c-3.96,2.06-7.55,4.92-10.62,8.43H4.83c-2.67,0-4.83,1.9-4.83,4.25v2.12c0,2.35,2.16,4.25,4.83,4.25h12.64c-1.97,4.38-3.29,9.22-3.85,14.34H4.83c-2.67,0-4.83,1.9-4.83,4.25v2.12c0,2.35,2.16,4.25,4.83,4.25h8.75c.53,5.12,1.83,9.95,3.78,14.34H4.83c-2.67,0-4.83,1.9-4.83,4.25v2.12c0,2.35,2.16,4.25,4.83,4.25h19.16c6.55,7.63,15.57,12.35,25.53,12.35s18.98-4.72,25.53-12.35h19.16c2.67,0,4.83-1.9,4.83-4.25v-2.12c0-2.35-2.16-4.25-4.83-4.25h-12.53c1.94-4.39,3.24-9.22,3.78-14.34h8.75c2.67,0,4.83-1.9,4.83-4.25v-2.12c0-2.35-2.16-4.25-4.83-4.25h-8.79c-.56-5.12-1.88-9.96-3.85-14.34h12.64c2.67,0,4.83-1.9,4.83-4.25Zm-35.03,40.36h-28.99v-11.33h28.99v11.33Zm0-20.53h-28.99v-11.33h28.99v11.33Z"/>
    </g>
  </g>
</svg>